#!OML:ASF E:\Style6\Style6.ASF
:FULLY-SPECIFIED
:DEGREES
3185
root -0.731875 18.1217 1.05694 37.082 -12.5946 -0.0656303
lowerback 18.0074 -0.291226 13.9475
upperback -3.96604 3.73948 6.31068
thorax -14.4604 0.844944 -1.7314
lowerneck -11.9741 3.45169 2.11009
upperneck -15.7271 3.1678 -12.2616
head -2.46344 1.69653 -4.0692
rclavicle -3.49861e-014 -3.49861e-014
rhumerus -50.3242 -27.2853 -47.2434
rradius 85.2813
rwrist 157.762
rhand -17.3311 11.5832
rfingers 7.12502
rthumb 8.91583 -18.2084
lclavicle -3.49861e-014 -3.49861e-014
lhumerus -51.9357 28.7679 62.8777
lradius 66.9152
lwrist 36.1846
lhand -24.7033 38.7116
lfingers 7.12502
lthumb 1.79814 68.6837
rfemur -51.718 34.1625 -7.75835
rtibia 13.0206
rfoot -13.8287 -35.7413
rtoes 14.6555
lfemur -29.7992 -18.3066 -3.69294
ltibia 7.15625e-014
lfoot -22.2531 27.4892
ltoes 43.7657
3186
root -0.735924 18.1219 1.05863 37.1391 -12.6606 -0.0575759
lowerback 17.8882 -0.261287 13.8664
upperback -3.99774 3.74156 6.31462
thorax -14.4293 0.854309 -1.68113
lowerneck -11.8359 3.50889 2.06514
upperneck -15.7123 3.25219 -12.2673
head -2.47498 1.74627 -4.06267
rclavicle -5.08889e-014 -1.74931e-014
rhumerus -50.3477 -27.2663 -47.1256
rradius 85.3307
rwrist 157.701
rhand -17.7325 11.6484
rfingers 7.12502
rthumb 8.52853 -18.1593
lclavicle -5.08889e-014 -1.74931e-014
lhumerus -51.9861 28.7817 62.8746
lradius 67.1193
lwrist 36.2894
lhand -24.3497 38.9596
lfingers 7.12502
lthumb 2.1396 68.9286
rfemur -51.7101 34.1045 -7.77854
rtibia 12.8901
rfoot -13.7328 -35.6703
rtoes 14.7493
lfemur -29.874 -18.3449 -3.64664
ltibia 7.79236e-014
lfoot -22.2631 27.6628
ltoes 43.4809
3187
root -0.740891 18.1211 1.05995 37.1536 -12.7252 -0.015423
lowerback 17.8114 -0.228685 13.7494
upperback -4.02897 3.74819 6.32166
thorax -14.4246 0.867526 -1.60973
lowerneck -11.6985 3.5704 2.04909
upperneck -15.6826 3.33244 -12.3669
head -2.47835 1.79411 -4.08994
rclavicle -5.08889e-014 -3.18055e-014
rhumerus -50.3935 -27.1997 -46.968
rradius 85.4035
rwrist 157.568
rhand -17.9768 11.7455
rfingers 7.12502
rthumb 8.29276 -18.0717
lclavicle -5.08889e-014 -3.18055e-014
lhumerus -52.0091 28.7719 62.9153
lradius 67.2944
lwrist 36.4966
lhand -23.9037 39.1011
lfingers 7.12502
lthumb 2.57032 69.0653
rfemur -51.6048 33.941 -7.65755
rtibia 12.8179
rfoot -13.5745 -35.4884
rtoes 14.7159
lfemur -29.8966 -18.423 -3.65002
ltibia -4.13472e-014
lfoot -22.2574 27.8134
ltoes 43.6242
3188
root -0.745996 18.1218 1.06731 36.9364 -12.7692 -0.10658
lowerback 17.9847 -0.224335 13.7813
upperback -4.00786 3.79534 6.33916
thorax -14.4991 0.882955 -1.62326
lowerneck -11.5601 3.63027 2.1437
upperneck -15.5731 3.40149 -12.5431
head -2.45314 1.82984 -4.15808
rclavicle -3.18055e-015 -4.13472e-014
rhumerus -50.5063 -27.1554 -46.819
rradius 85.4806
rwrist 157.447
rhand -18.1758 11.7956
rfingers 7.12502
rthumb 8.10066 -18.0291
lclavicle -3.18055e-015 -4.13472e-014
lhumerus -52.0265 28.684 62.9632
lradius 67.4388
lwrist 36.7955
lhand -23.4726 39.0915
lfingers 7.12502
lthumb 2.9867 69.0504
rfemur -51.289 34.0787 -7.35883
rtibia 12.7879
rfoot -13.4655 -35.4067
rtoes 14.5158
lfemur -29.5898 -18.519 -3.63219
ltibia -3.97569e-014
lfoot -22.2779 27.9671
ltoes 44.0193
3189
root -0.751661 18.1233 1.07733 36.6151 -12.8425 -0.19816
lowerback 18.2162 -0.220154 13.8122
upperback -3.93248 3.84284 6.33846
thorax -14.5408 0.900691 -1.66033
lowerneck -11.4887 3.68903 2.28914
upperneck -15.4578 3.46368 -12.7408
head -2.41423 1.85738 -4.24061
rclavicle -6.36111e-015 5.40694e-014
rhumerus -50.5716 -27.216 -46.6853
rradius 85.5013
rwrist 157.353
rhand -18.3701 11.839
rfingers 7.12502
rthumb 7.91315 -17.9929
lclavicle -6.36111e-015 5.40694e-014
lhumerus -51.9991 28.5968 63.0241
lradius 67.5917
lwrist 37.0334
lhand -23.1191 39.1762
lfingers 7.12502
lthumb 3.32809 69.1299
rfemur -50.8067 34.1838 -6.8921
rtibia 12.7769
rfoot -13.1075 -35.2475
rtoes 13.9203
lfemur -29.1444 -18.6292 -3.6793
ltibia -1.74931e-014
lfoot -22.4285 28.0392
ltoes 44.3096
3190
root -0.759221 18.1209 1.07433 36.6969 -12.8678 -0.191365
lowerback 18.017 -0.1662 13.6842
upperback -3.94732 3.84939 6.35852
thorax -14.443 0.921596 -1.5671
lowerneck -11.4194 3.76097 2.34105
upperneck -15.3942 3.55279 -12.8811
head -2.39273 1.90366 -4.29013
rclavicle 2.22639e-014 1.74931e-014
rhumerus -50.5493 -27.2394 -46.6147
rradius 85.4744
rwrist 157.264
rhand -18.3521 11.7747
rfingers 7.12502
rthumb 7.93054 -18.0565
lclavicle 2.22639e-014 1.74931e-014
lhumerus -51.9278 28.5995 63.0925
lradius 67.7441
lwrist 37.1846
lhand -22.8657 39.7376
lfingers 7.12502
lthumb 3.57279 69.6874
rfemur -50.8248 33.9777 -6.7563
rtibia 12.765
rfoot -12.7956 -35.0494
rtoes 13.6727
lfemur -29.2651 -18.6848 -3.58615
ltibia -4.77083e-015
lfoot -22.464 28.1713
ltoes 44.1846
3191
root -0.76538 18.1165 1.06723 36.8803 -12.9044 -0.0972351
lowerback 17.7217 -0.106595 13.4774
upperback -4.00623 3.83099 6.35701
thorax -14.3445 0.935914 -1.446
lowerneck -11.3126 3.83284 2.37924
upperneck -15.3989 3.63655 -13.0147
head -2.39839 1.95127 -4.33744
rclavicle -2.70347e-014 -3.49861e-014
rhumerus -50.5528 -27.2752 -46.5535
rradius 85.4674
rwrist 157.181
rhand -18.4525 11.7826
rfingers 7.12502
rthumb 7.83363 -18.0523
lclavicle -2.70347e-014 -3.49861e-014
lhumerus -51.8715 28.6574 63.118
lradius 67.8719
lwrist 37.1879
lhand -22.5069 40.0963
lfingers 7.12502
lthumb 3.91925 70.04
rfemur -50.9818 33.6665 -6.78113
rtibia 12.767
rfoot -12.6288 -34.8219
rtoes 13.7121
lfemur -29.5544 -18.7445 -3.52237
ltibia -1.27222e-014
lfoot -22.4787 28.3532
ltoes 44.0818
3192
root -0.771663 18.1152 1.06702 36.811 -12.9385 -0.0753206
lowerback 17.7143 -0.085399 13.3748
upperback -4.01606 3.83634 6.36045
thorax -14.3557 0.946695 -1.38765
lowerneck -11.3138 3.89631 2.46016
upperneck -15.2151 3.72094 -13.1897
head -2.32796 1.98798 -4.39887
rclavicle 9.54166e-015 6.04305e-014
rhumerus -50.6085 -27.3306 -46.4272
rradius 85.4992
rwrist 157.125
rhand -18.6876 11.993
rfingers 7.12502
rthumb 7.60671 -17.8502
lclavicle 9.54166e-015 6.04305e-014
lhumerus -51.8688 28.6995 63.1158
lradius 68.0173
lwrist 37.1559
lhand -21.9745 40.147
lfingers 7.12502
lthumb 4.43338 70.0806
rfemur -50.8092 33.5838 -6.61499
rtibia 12.6987
rfoot -12.431 -34.7012
rtoes 13.503
lfemur -29.4983 -18.8536 -3.50998
ltibia -4.13472e-014
lfoot -22.5928 28.48
ltoes 44.159
3193
root -0.776755 18.1172 1.07433 36.5185 -12.9653 -0.183332
lowerback 17.9572 -0.0914383 13.4441
upperback -3.97084 3.88585 6.36452
thorax -14.4406 0.959171 -1.43948
lowerneck -11.3803 3.94716 2.58743
upperneck -14.8766 3.80009 -13.3739
head -2.1997 2.01243 -4.46649
rclavicle 4.77083e-015 -8.26944e-014
rhumerus -50.6968 -27.4007 -46.2722
rradius 85.5135
rwrist 157.093
rhand -18.8996 12.256
rfingers 7.12502
rthumb 7.40211 -17.5945
lclavicle 4.77083e-015 -8.26944e-014
lhumerus -51.8658 28.6307 63.1247
lradius 68.1615
lwrist 37.2202
lhand -21.6249 40.2329
lfingers 7.12502
lthumb 4.77094 70.1592
rfemur -50.2278 33.5326 -5.98101
rtibia 12.596
rfoot -11.9484 -34.4093
rtoes 12.723
lfemur -29.1102 -18.9783 -3.49826
ltibia -5.08889e-014
lfoot -22.7411 28.5714
ltoes 44.212
